<?xml version="1.0" encoding="UTF-8"?>
<!DOCTYPE svg PUBLIC "-//W3C//DTD SVG 1.1//EN" "http://www.w3.org/Graphics/SVG/1.1/DTD/svg11.dtd">
<!-- Creator: CorelDRAW 2019 (64-Bit) -->
<svg xmlns="http://www.w3.org/2000/svg" xml:space="preserve" width="26.6583mm" height="26.6583mm" version="1.1" shape-rendering="geometricPrecision" text-rendering="geometricPrecision" image-rendering="optimizeQuality" fill-rule="evenodd" clip-rule="evenodd"
viewBox="0 0 299.03 299.03"
 xmlns:xlink="http://www.w3.org/1999/xlink"
 xmlns:xodm="http://www.corel.com/coreldraw/odm/2003"
 enable-background="new 0 0 24 24">
 <g id="Capa_x0020_1">
  <metadata id="CorelCorpID_0Corel-Layer"/>
  <rect fill="black" stroke="#333333" stroke-width="2.24" stroke-miterlimit="22.9256" x="1.12" y="1.12" width="296.78" height="296.78" rx="148.39" ry="148.39"/>
  <g id="codepen.svg">
   <path fill="white" fill-rule="nonzero" d="M229.01 120.47c-0.29,-1.75 -0.53,-3.11 -2.38,-4.24 -75.74,-44.93 -74.67,-48.27 -79.59,-45.3 -57.4,35.68 -73.38,43.64 -75.68,46.42 -2.08,2.14 -1.13,5.41 -1.13,54.9 -0.14,5.63 51.22,36.13 76.2,55.6 2.2,1.57 4.97,1.32 6.63,-0.19 74.25,-52.63 76.06,-50.52 75.93,-55.41 0,0 -0.08,-52.44 0,-51.77zm-9.92 42.94l-25.64 -15.61 25.64 -17.84 0 33.45zm-34.91 -21.25l-29.59 -18.01 0 -40.16 60.37 36.75 -30.78 21.41zm-34.55 24.03l-25.64 -17.84 25.64 -15.61 25.64 15.61 -25.64 17.84zm-4.96 -82.21l0 40.18c-11.5,7.14 -21.23,13.1 -29.45,18.09l-30.93 -21.51 60.37 -36.76zm-38.75 63.89c-12.4,7.45 -20.5,12.19 -25.75,15.35l0 -33.27 25.75 17.92zm8.8 6.11l29.95 20.83 0 39.69 -60.37 -42 30.42 -18.52zm39.87 60.53l0 -39.69 29.95 -20.83 30.42 18.52 -60.37 42z"/>
  </g>
 </g>
</svg>
