<?xml version="1.0" encoding="UTF-8"?>
<!DOCTYPE svg PUBLIC "-//W3C//DTD SVG 1.1//EN" "http://www.w3.org/Graphics/SVG/1.1/DTD/svg11.dtd">
<!-- Creator: CorelDRAW 2019 (64-Bit) -->
<svg xmlns="http://www.w3.org/2000/svg" xml:space="preserve" width="26.6583mm" height="26.6583mm" version="1.1" shape-rendering="geometricPrecision" text-rendering="geometricPrecision" image-rendering="optimizeQuality" fill-rule="evenodd" clip-rule="evenodd"
viewBox="0 0 408.05 408.05"
 xmlns:xlink="http://www.w3.org/1999/xlink"
 xmlns:xodm="http://www.corel.com/coreldraw/odm/2003">
 <g id="Capa_x0020_1">
  <metadata id="CorelCorpID_0Corel-Layer"/>
  <rect fill="black" stroke="#333333" stroke-width="3.06" stroke-miterlimit="22.9256" x="1.53" y="1.53" width="404.99" height="404.99" rx="202.5" ry="202.5"/>
  <path fill="white" d="M171.87 127.24l0 60.85 64.3 0 0 -58.41c0,-1.32 1.08,-2.4 2.4,-2.4l26.56 0c1.32,0 2.4,1.08 2.4,2.4l0 151.12 14.06 0c0.8,0 1.48,0.45 1.8,1.19 0.31,0.74 0.16,1.54 -0.39,2.12l-29.74 30.69c-0.38,0.39 -0.85,0.59 -1.4,0.59 -0.55,0 -1.02,-0.2 -1.4,-0.59l-29.74 -30.69c-0.56,-0.58 -0.71,-1.38 -0.39,-2.12 0.31,-0.74 0.99,-1.19 1.8,-1.19l14.06 0 0 -61.2 -64.3 0 0 58.76c0,1.32 -1.08,2.4 -2.4,2.4l-26.56 0c-1.32,0 -2.4,-1.08 -2.4,-2.4l0 -151.12 -14.06 0c-0.8,0 -1.48,-0.45 -1.8,-1.19 -0.31,-0.74 -0.16,-1.54 0.39,-2.12l29.74 -30.69c0.38,-0.39 0.85,-0.59 1.4,-0.59 0.55,0 1.02,0.2 1.4,0.59l29.74 30.69c0.56,0.58 0.71,1.38 0.4,2.12 -0.31,0.74 -1,1.19 -1.8,1.19l-14.06 0z"/>
 </g>
</svg>
