<?xml version="1.0" encoding="UTF-8"?>
<!DOCTYPE svg PUBLIC "-//W3C//DTD SVG 1.1//EN" "http://www.w3.org/Graphics/SVG/1.1/DTD/svg11.dtd">
<!-- Creator: CorelDRAW 2019 (64-Bit) -->
<svg xmlns="http://www.w3.org/2000/svg" xml:space="preserve" width="26.6583mm" height="26.6583mm" version="1.1" shape-rendering="geometricPrecision" text-rendering="geometricPrecision" image-rendering="optimizeQuality" fill-rule="evenodd" clip-rule="evenodd"
viewBox="0 0 312.41 312.41"
 xmlns:xlink="http://www.w3.org/1999/xlink"
 xmlns:xodm="http://www.corel.com/coreldraw/odm/2003">
 <g id="Capa_x0020_1">
  <metadata id="CorelCorpID_0Corel-Layer"/>
  <g id="_1311374800">
   <rect fill="black" stroke="#333333" stroke-width="2.34" stroke-miterlimit="22.9256" x="1.17" y="1.17" width="310.07" height="310.07" rx="173.64" ry="173.64"/>
   <path fill="white" fill-rule="nonzero" d="M241.43 241.47l0 -0.01 0.04 0 0 -62.54c0,-30.6 -6.59,-54.17 -42.36,-54.17 -17.2,0 -28.74,9.44 -33.45,18.38l-0.5 0 0 -15.53 -33.92 0 0 113.85 35.32 0 0 -56.38c0,-14.84 2.81,-29.2 21.2,-29.2 18.11,0 18.38,16.94 18.38,30.15l0 55.43 35.28 0zm-150.02 -170.54c-11.3,0 -20.48,9.17 -20.48,20.48 0,11.31 9.17,20.67 20.48,20.67 11.31,0 20.48,-9.36 20.48,-20.67 -0.01,-11.3 -9.18,-20.48 -20.48,-20.48zm-17.66 56.68l35.36 0 0 113.85 -35.36 0 0 -113.85z"/>
  </g>
 </g>
</svg>
