<?xml version="1.0" encoding="UTF-8"?>
<!DOCTYPE svg PUBLIC "-//W3C//DTD SVG 1.1//EN" "http://www.w3.org/Graphics/SVG/1.1/DTD/svg11.dtd">
<!-- Creator: CorelDRAW 2019 (64-Bit) -->
<svg xmlns="http://www.w3.org/2000/svg" xml:space="preserve" width="26.6583mm" height="26.6583mm" version="1.1" shape-rendering="geometricPrecision" text-rendering="geometricPrecision" image-rendering="optimizeQuality" fill-rule="evenodd" clip-rule="evenodd"
viewBox="0 0 759.28 759.28"
 xmlns:xlink="http://www.w3.org/1999/xlink"
 xmlns:xodm="http://www.corel.com/coreldraw/odm/2003">
 <g id="Capa_x0020_1">
  <metadata id="CorelCorpID_0Corel-Layer"/>
  <rect fill="black" stroke="#333333" stroke-width="5.7" stroke-miterlimit="22.9256" x="2.85" y="2.85" width="753.58" height="753.58" rx="376.79" ry="376.79"/>
  <path fill="white" fill-rule="nonzero" d="M544.29 295.24c16.86,-11.97 31.03,-26.91 42.59,-44.11l0 -0.02c-15.42,6.75 -31.83,11.24 -48.96,13.42 17.62,-10.52 31.07,-27.04 37.39,-46.96 -16.43,9.79 -34.56,16.7 -53.88,20.57 -15.59,-16.61 -37.82,-26.89 -62.07,-26.89 -47.04,0 -84.92,38.18 -84.92,84.98 0,6.74 0.57,13.21 1.97,19.38 -70.63,-3.45 -133.15,-37.3 -175.15,-88.89 -7.32,12.73 -11.64,27.29 -11.64,42.95 0,29.43 15.15,55.51 37.75,70.61 -13.66,-0.26 -27.05,-4.23 -38.39,-10.46l0 0.93c0,41.29 29.44,75.59 68.08,83.5 -6.93,1.9 -14.45,2.8 -22.28,2.8 -5.44,0 -10.93,-0.31 -16.08,-1.45 11,33.64 42.26,58.39 79.39,59.2 -28.91,22.61 -65.62,36.23 -105.36,36.23 -6.96,0 -13.64,-0.31 -20.32,-1.16 37.65,24.26 82.24,38.13 130.35,38.13 149.95,0 247.68,-125.1 241.53,-252.77z"/>
 </g>
</svg>
