<?xml version="1.0" encoding="UTF-8"?>
<!DOCTYPE svg PUBLIC "-//W3C//DTD SVG 1.1//EN" "http://www.w3.org/Graphics/SVG/1.1/DTD/svg11.dtd">
<!-- Creator: CorelDRAW 2019 (64-Bit) -->
<svg xmlns="http://www.w3.org/2000/svg" xml:space="preserve" width="26.6583mm" height="26.6583mm" version="1.1" shape-rendering="geometricPrecision" text-rendering="geometricPrecision" image-rendering="optimizeQuality" fill-rule="evenodd" clip-rule="evenodd"
viewBox="0 0 1764.25 1764.25"
 xmlns:xlink="http://www.w3.org/1999/xlink"
 xmlns:xodm="http://www.corel.com/coreldraw/odm/2003">
 <g id="Capa_x0020_1">
  <metadata id="CorelCorpID_0Corel-Layer"/>
  <rect fill="black" stroke="#333333" stroke-width="13.24" stroke-miterlimit="22.9256" x="6.62" y="6.62" width="1751.01" height="1751.01" rx="875.51" ry="875.51"/>
  <g id="_219365696">
   <path fill="white" d="M986.53 1303.88l0 0zm-208.82 0l0 0zm122.84 12.28l0 -137.17 118.75 0c-2.01,24.18 -46.99,91.33 -76.01,114.39 -24.2,19.23 -21.89,12.79 -42.73,22.78zm-155.6 -137.17l118.75 0 0 137.17c-17.77,-8.52 -20.46,-4.68 -41.59,-21.87 -14.06,-11.44 -20.09,-18.01 -31.48,-32 -9.17,-11.26 -18.58,-25.38 -25.21,-38.25 -3.87,-7.51 -8.09,-13.22 -11.44,-21.32 -3.6,-8.72 -7.9,-14.95 -9.03,-23.73zm241.58 124.89c10.25,-15.3 21.57,-24.12 41.36,-56.91 3.51,-5.82 5.1,-9.88 8.45,-16.11 14.26,-26.53 12.89,-28.91 23.89,-51.86l139.22 0c-13.67,20.42 -45.45,43.31 -66.09,58.8 -22.1,16.58 -56.11,34.79 -81.61,45.33 -13.67,5.65 -49.05,20.4 -65.23,20.76zm-208.82 0c-13.41,-0.3 -52.31,-14.75 -64.06,-19.87 -31.95,-13.92 -78.5,-39.7 -105.27,-62.62 -11.56,-9.91 -36.03,-31.1 -43.59,-42.4l139.22 0c13.14,27.39 12.55,34.53 31.57,66.71 19.89,33.66 30.97,41.51 42.14,58.18zm251.82 -159.69l-128.99 0 0 -120.79 161.74 0c-0.19,8.09 -3.17,22.94 -4.97,31.89l-15.25 62.55c-1.76,5.64 -2.81,8.37 -4.27,14.16 -1.56,6.21 -1.33,12.2 -8.27,12.2zm-327.57 -120.79l161.74 0 0 120.79 -128.99 0c-7.94,0 -7.28,-10.06 -12.03,-24.82 -7.39,-22.97 -10.36,-39.15 -15.4,-62.4 -1.91,-8.78 -5.1,-25.35 -5.32,-33.57zm370.56 120.79c4.45,-19.1 10.91,-37.18 15.53,-58.18l11.09 -62.61 194.5 0c-7.88,33.82 -38.68,85.36 -57.23,112.7 -8.08,11.92 -15.88,8.1 -34.9,8.09l-128.99 0zm-601.92 -120.79l194.5 0c0.2,8.76 3.22,22.18 4.96,31.9 6.96,38.7 14.06,56.27 21.66,88.89l-126.93 0c-21.31,0.01 -28.78,3.36 -36.14,-6.86 -21.38,-29.66 -39.4,-62.85 -52.21,-97.25 -1.42,-3.83 -4.15,-12.94 -5.83,-16.69zm-77.79 -81.89l0 -118.75c0,-26.17 11.45,-45.04 36.85,-45.04l904.92 0c25.41,0 36.86,18.87 36.86,45.04l0 118.75c0,26.17 -11.45,45.04 -36.86,45.04l-904.92 0c-25.4,0 -36.85,-18.87 -36.85,-45.04zm507.73 -321.43l128.99 0c7.95,0 7.28,10.06 12.03,24.82 6.15,19.1 20.32,77.55 20.73,95.97l-161.74 0 0 -120.79zm-165.83 0l128.99 0 0 120.79 -161.74 0c0.18,-8.09 3.16,-22.94 4.96,-31.89l15.25 -62.55c4.84,-15.49 4.91,-26.35 12.54,-26.35zm337.81 0l147.58 -0.17c10.17,0.19 10.85,0.59 15.49,7.03 18.6,25.79 50.61,82.06 58.04,113.94l-194.5 0c-0.38,-17.05 -19.93,-105.83 -26.62,-120.79zm-407.42 120.79l-194.5 0c7.88,-33.82 38.68,-85.36 57.23,-112.7 8.09,-11.92 15.88,-8.1 34.9,-8.09l128.99 0c-7.6,32.63 -14.71,50.19 -21.66,88.89 -1.74,9.72 -4.76,23.14 -4.96,31.9zm235.44 -292.77c7.13,3.42 13.92,4.82 21.89,8.82 30.5,15.27 61.02,53.47 76.39,83.3 4.73,9.17 19.57,34.33 20.46,45.06l-118.75 0 0 -137.17zm-36.85 0l0 137.17 -118.75 0c2.01,-24.18 46.99,-91.33 76.01,-114.39 7.47,-5.93 9.99,-8.44 19.48,-13.28 8.52,-4.35 15.61,-5.84 23.25,-9.5zm122.84 12.28c13.41,0.3 52.31,14.75 64.07,19.87 19.77,8.62 37.7,17.56 55.58,28.36l49.68 34.25c11.57,9.91 36.04,31.1 43.6,42.4l-139.22 0 -31.56 -66.71c-19.9,-33.66 -30.98,-41.51 -42.14,-58.18zm-208.82 0c-3.33,4.97 -6.7,7.79 -11.13,13.43 -13.23,16.89 -39.32,55.96 -47.4,75.44 -5.15,12.42 -9.75,24.72 -15.17,36.02l-139.22 0c15.42,-23.04 65.15,-59.79 92.01,-75.88 18.1,-10.85 35.32,-19.4 55.43,-28.51 11.04,-5 51.96,-20.2 65.49,-20.5zm208.82 0l0 0zm-208.82 0l0 0zm-419.7 348.05l0 147.4c0,28.75 22.23,55.86 50.84,63.81 43.69,12.16 9.09,-10.87 48.11,66.54 29.11,57.74 35.6,62.1 68.07,103.91 9.2,11.85 18.62,19.95 29.02,30.36 56.87,56.87 141.72,105.28 223.83,122.16 26.76,5.51 75.79,12.59 104.25,12.59 25.91,0 78.89,-7.35 102.54,-12.25 82.79,-17.17 167.09,-64.03 224.52,-121.47 29.95,-29.95 42.08,-43.18 65.64,-77.67l31.78 -56.26 24.87 -61.12c6.72,-9.14 33.8,0.5 57.83,-28.15 8.19,-9.78 16.93,-25.24 16.93,-42.45l0 -147.4c0,-28.75 -22.23,-55.86 -50.84,-63.81 -43.69,-12.16 -9.09,10.87 -48.11,-66.54 -29.1,-57.74 -35.59,-62.1 -68.07,-103.91 -9.2,-11.85 -18.62,-19.95 -29.01,-30.36 -70.91,-70.91 -170.52,-119.13 -272.81,-130.52l-55.28 -4.23c-12.26,0 -14.92,2.17 -26.54,2.25 -52.45,0.38 -117.01,18.66 -162.41,38.23 -51.69,22.3 -101.1,56.23 -138.11,93.24 -104.07,104.09 -109.91,178.21 -122.29,195.05 -4.53,6.16 -13.63,4.23 -22.32,6.34 -14,3.4 -27.7,12.51 -35.51,21.81 -8.2,9.78 -16.93,25.25 -16.93,42.45z"/>
   <path fill="white" d="M1039.77 824.8c0,21.5 22.63,78.91 30.94,104.18 4.45,13.51 6.44,22.76 22.29,22.76 13.55,0 18.21,-14.37 27.5,-29.83 4.05,-6.74 6.76,-11.22 10.75,-17.91 3.61,-6.04 9.2,-13.51 10.89,-19.83l35.64 54.44c5.52,9.32 7.58,13.12 19.64,13.12 17.98,0 22.67,-30.11 30.97,-55.02 11.56,-34.7 38.21,-84.2 1.79,-84.2 -15.95,0 -18.76,20.42 -23.3,34.04 -3.62,10.87 -12.73,33.78 -13.55,43.76 -6.94,-4.65 -16.92,-24.49 -22.14,-33.14 -7.87,-13.04 -12.77,-27.43 -27,-27.43 -6.88,0 -12.83,3.89 -16.39,9.37 -7.76,11.93 -24.61,45.75 -32.75,51.2 -0.83,-9.99 -9.93,-32.9 -13.55,-43.76 -5.79,-17.37 -7,-34.04 -25.34,-34.04 -7.48,0 -16.38,5.65 -16.38,12.28z"/>
   <path fill="white" d="M777.71 824.8c0,20.41 13.1,50.59 20.21,71.92 10.19,30.58 12.49,55.02 33.02,55.02 13.55,0 18.21,-14.37 27.5,-29.83 4.05,-6.74 6.76,-11.22 10.75,-17.91 3.61,-6.04 9.2,-13.51 10.89,-19.83l35.64 54.44c5.52,9.32 7.58,13.12 19.64,13.12 17.97,0 22.67,-30.11 30.97,-55.02 11.56,-34.7 38.21,-84.2 1.79,-84.2 -16.58,0 -18.57,19.87 -23.29,34.04 -3.63,10.87 -12.73,33.78 -13.56,43.76 -17.16,-11.49 -26.97,-60.57 -49.14,-60.57 -22.44,0 -31.82,48.97 -49.13,60.57 -0.83,-9.99 -9.94,-32.9 -13.56,-43.76 -5.79,-17.37 -7,-34.04 -25.34,-34.04 -7.48,0 -16.38,5.65 -16.38,12.28z"/>
   <path fill="white" d="M515.65 824.8c0,20.41 13.1,50.59 20.21,71.92 10.19,30.58 12.49,55.02 33.02,55.02 9.88,0 12.89,-5.33 16.84,-11.83l36.4 -55.73 31.54 54.44c5.52,9.32 7.58,13.12 19.64,13.12 17.97,0 22.67,-30.11 30.97,-55.02 11.57,-34.7 38.21,-84.2 1.79,-84.2 -15.95,0 -18.76,20.42 -23.29,34.04 -3.63,10.87 -12.73,33.78 -13.56,43.76 -7.23,-4.84 -24.82,-38.03 -32,-49.9 -9.05,-14.98 -25.81,-13.16 -33.53,-1.3 -7.76,11.93 -24.61,45.75 -32.75,51.2 -0.83,-9.99 -9.93,-32.9 -13.56,-43.76 -5.79,-17.37 -7,-34.04 -25.34,-34.04 -7.48,0 -16.38,5.65 -16.38,12.28z"/>
  </g>
 </g>
</svg>
